<?xml version="1.0" encoding="UTF-8" standalone="no"?>
<svg
   width="261.30911"
   height="65.002266"
   viewBox="0 0 261.30911 65.002266"
   version="1.1"
   id="svg66"
   sodipodi:docname="Group logo.svg"
   inkscape:version="1.3.2 (091e20e, 2023-11-25)"
   xmlns:inkscape="http://www.inkscape.org/namespaces/inkscape"
   xmlns:sodipodi="http://sodipodi.sourceforge.net/DTD/sodipodi-0.dtd"
   xmlns="http://www.w3.org/2000/svg"
   xmlns:svg="http://www.w3.org/2000/svg">
  <defs
     id="defs66" />
  <sodipodi:namedview
     id="namedview66"
     pagecolor="#1957a0"
     bordercolor="#000000"
     borderopacity="0.25"
     inkscape:showpageshadow="2"
     inkscape:pageopacity="0.0"
     inkscape:pagecheckerboard="0"
     inkscape:deskcolor="#d1d1d1"
     inkscape:zoom="4.7164179"
     inkscape:cx="129.33544"
     inkscape:cy="33.5"
     inkscape:window-width="2560"
     inkscape:window-height="1387"
     inkscape:window-x="0"
     inkscape:window-y="25"
     inkscape:window-maximized="0"
     inkscape:current-layer="svg66" />
  <rect
     style="fill:#1957a0;fill-opacity:1;stroke-width:0.491356;stroke-linejoin:round;stroke-miterlimit:10;paint-order:fill markers stroke"
     id="rect66"
     width="261.30911"
     height="65.002266"
     x="0"
     y="0" />
  <path
     stroke="none"
     fill="#ffffff"
     d="m 150.26573,41.567648 -1.46905,0.847629 V 22.846346 l 1.46905,0.848929 z"
     id="path1"
     style="stroke-width:0.0650023" />
  <path
     stroke="none"
     fill="#ffffff"
     d="m 165.74277,50.503509 v 1.696559 l -16.94609,-9.784791 1.46905,-0.847629 z"
     id="path2"
     style="stroke-width:0.0650023" />
  <path
     stroke="none"
     fill="#ffffff"
     d="m 181.21981,41.567648 1.46905,0.847629 -16.94609,9.784791 v -1.696559 z"
     id="path3"
     style="stroke-width:0.0650023" />
  <path
     stroke="none"
     fill="#ffffff"
     d="m 181.21981,23.695275 1.46905,-0.848929 v 19.568931 l -1.46905,-0.847629 z"
     id="path4"
     style="stroke-width:0.0650023" />
  <path
     stroke="none"
     fill="#ffffff"
     d="m 165.74277,14.771115 v -1.695259 l 16.94609,9.77049 -1.46905,0.848929 z"
     id="path5"
     style="stroke-width:0.0650023" />
  <path
     stroke="none"
     fill="#ffffff"
     d="m 150.26573,23.695275 -1.46905,-0.848929 16.94609,-9.77049 v 1.695259 z"
     id="path6"
     style="stroke-width:0.0650023" />
  <path
     stroke="none"
     fill="#ffffff"
     d="m 162.66816,3.3671174 h 1.46906 V 15.272932 h -1.46906 z"
     id="path7"
     style="stroke-width:0.0650023" />
  <path
     stroke="none"
     fill="#ffffff"
     d="m 167.34833,3.3671174 h 1.46905 V 15.272932 h -1.46905 z"
     id="path8"
     style="stroke-width:0.0650023" />
  <path
     stroke="none"
     fill="#ffffff"
     d="m 190.27333,14.181544 0.80212,1.230493 -10.99448,7.163249 -0.80148,-1.231143 z"
     id="path9"
     style="stroke-width:0.0650023" />
  <path
     stroke="none"
     fill="#ffffff"
     d="m 192.82792,18.103131 0.80212,1.230492 -11.27464,7.345256 -0.80213,-1.230493 z"
     id="path10"
     style="stroke-width:0.0650023" />
  <path
     stroke="none"
     fill="#ffffff"
     d="m 193.09637,45.576987 -0.80147,1.231143 -10.74163,-6.993593 0.80213,-1.231143 z"
     id="path11"
     style="stroke-width:0.0650023" />
  <path
     stroke="none"
     fill="#ffffff"
     d="m 190.54244,49.499224 -0.80148,1.231143 -10.46017,-6.810937 0.80148,-1.231143 z"
     id="path12"
     style="stroke-width:0.0650023" />
  <path
     stroke="none"
     fill="#ffffff"
     d="m 168.81738,62.259168 h -1.46905 V 50.000391 h 1.46905 z"
     id="path13"
     style="stroke-width:0.0650023" />
  <path
     stroke="none"
     fill="#ffffff"
     d="m 164.13722,62.259168 h -1.46906 V 50.000391 h 1.46906 z"
     id="path14"
     style="stroke-width:0.0650023" />
  <path
     stroke="none"
     fill="#ffffff"
     d="m 137.16908,19.984946 0.70722,-1.287045 12.00852,6.59968 -0.70722,1.287045 z"
     id="path15"
     style="stroke-width:0.0650023" />
  <path
     stroke="none"
     fill="#ffffff"
     d="m 139.42336,15.883303 0.70722,-1.287045 12.12552,6.664033 -0.70787,1.287044 z"
     id="path16"
     style="stroke-width:0.0650023" />
  <path
     stroke="none"
     fill="#ffffff"
     d="m 141.40787,52.031062 -0.88923,-1.169391 10.76568,-8.186385 0.88923,1.169391 z"
     id="path17"
     style="stroke-width:0.0650023" />
  <path
     stroke="none"
     fill="#ffffff"
     d="m 138.57508,48.305782 -0.88924,-1.16939 11.40075,-8.669352 0.88923,1.16939 z"
     id="path18"
     style="stroke-width:0.0650023" />
  <path
     stroke="none"
     fill="#ffffff"
     d="M 16.101062,41.567648 14.63201,42.415277 V 22.846346 l 1.469052,0.848929 z"
     id="path19"
     style="stroke-width:0.0650023" />
  <path
     stroke="none"
     fill="#ffffff"
     d="m 31.5781,50.503509 v 1.696559 l -16.94609,-9.784791 1.469052,-0.847629 z"
     id="path20"
     style="stroke-width:0.0650023" />
  <path
     stroke="none"
     fill="#ffffff"
     d="M 47.05514,41.567648 48.524191,42.415277 31.5781,52.200068 V 50.503509 Z"
     id="path21"
     style="stroke-width:0.0650023" />
  <path
     stroke="none"
     fill="#ffffff"
     d="m 47.05514,23.695275 1.469051,-0.848929 V 42.415277 L 47.05514,41.567648 Z"
     id="path22"
     style="stroke-width:0.0650023" />
  <path
     stroke="none"
     fill="#ffffff"
     d="m 31.5781,14.771115 v -1.695259 l 16.946091,9.77049 -1.469051,0.848929 z"
     id="path23"
     style="stroke-width:0.0650023" />
  <path
     stroke="none"
     fill="#ffffff"
     d="M 16.101062,23.695275 14.63201,22.846346 31.5781,13.075856 v 1.695259 z"
     id="path24"
     style="stroke-width:0.0650023" />
  <path
     stroke="none"
     fill="#ffffff"
     d="m 28.503493,3.3671174 h 1.469051 V 15.272932 h -1.469051 z"
     id="path25"
     style="stroke-width:0.0650023" />
  <path
     stroke="none"
     fill="#ffffff"
     d="m 33.183656,3.3671174 h 1.469051 V 15.272932 h -1.469051 z"
     id="path26"
     style="stroke-width:0.0650023" />
  <path
     stroke="none"
     fill="#ffffff"
     d="M 56.108655,14.181544 56.910783,15.412037 45.9163,22.575286 45.114822,21.344143 Z"
     id="path27"
     style="stroke-width:0.0650023" />
  <path
     stroke="none"
     fill="#ffffff"
     d="m 58.663244,18.103131 0.802128,1.230492 -11.274643,7.345256 -0.802128,-1.230493 z"
     id="path28"
     style="stroke-width:0.0650023" />
  <path
     stroke="none"
     fill="#ffffff"
     d="M 58.931703,45.576987 58.130225,46.80813 47.388601,39.814537 48.190729,38.583394 Z"
     id="path29"
     style="stroke-width:0.0650023" />
  <path
     stroke="none"
     fill="#ffffff"
     d="M 56.377764,49.499224 55.576286,50.730367 45.116122,43.91943 45.9176,42.688287 Z"
     id="path30"
     style="stroke-width:0.0650023" />
  <path
     stroke="none"
     fill="#ffffff"
     d="M 34.652707,62.259168 H 33.183656 V 50.000391 h 1.469051 z"
     id="path31"
     style="stroke-width:0.0650023" />
  <path
     stroke="none"
     fill="#ffffff"
     d="M 29.972544,62.259168 H 28.503493 V 50.000391 h 1.469051 z"
     id="path32"
     style="stroke-width:0.0650023" />
  <path
     stroke="none"
     fill="#ffffff"
     d="m 3.0044046,19.984946 0.707225,-1.287045 12.0085184,6.59968 -0.707224,1.287045 z"
     id="path33"
     style="stroke-width:0.0650023" />
  <path
     stroke="none"
     fill="#ffffff"
     d="m 5.2586836,15.883303 0.707225,-1.287045 12.1255224,6.664033 -0.707875,1.287044 z"
     id="path34"
     style="stroke-width:0.0650023" />
  <path
     stroke="none"
     fill="#ffffff"
     d="m 7.2432026,52.031062 -0.889231,-1.169391 10.7656754,-8.186385 0.889231,1.169391 z"
     id="path35"
     style="stroke-width:0.0650023" />
  <path
     stroke="none"
     fill="#ffffff"
     d="m 4.4104036,48.305782 -0.889231,-1.16939 11.4007484,-8.669352 0.88923,1.16939 z"
     id="path36"
     style="stroke-width:0.0650023" />
  <path
     stroke="none"
     fill="#ffffff"
     d="M 84.275436,41.567648 83.54091,41.991463 82.806385,41.62745 V 23.705026 l 0.734525,-0.434215 0.734526,0.424464 z"
     id="path37"
     style="stroke-width:0.0650023" />
  <path
     stroke="none"
     fill="#ffffff"
     d="m 99.752475,50.503509 v 0.848279 l -0.734526,0.423815 -15.421137,-8.90401 -0.0559,-0.88013 0.734526,-0.423815 z"
     id="path38"
     style="stroke-width:0.0650023" />
  <path
     stroke="none"
     fill="#ffffff"
     d="m 100.11974,46.474669 -0.734528,1.272094 -12.538937,-7.239302 0.734526,-1.272744 z"
     id="path39"
     style="stroke-width:0.0650023" />
  <path
     stroke="none"
     fill="#ffffff"
     d="m 115.22951,41.567648 0.73453,0.423815 -0.0228,0.86128 -15.45429,8.92286 -0.734525,-0.423815 v -0.848279 z"
     id="path40"
     style="stroke-width:0.0650023" />
  <path
     stroke="none"
     fill="#ffffff"
     d="m 115.22951,23.695275 0.73453,-0.424464 0.73452,0.397813 v 17.924375 l -0.73452,0.398464 -0.73453,-0.423815 z"
     id="path41"
     style="stroke-width:0.0650023" />
  <path
     stroke="none"
     fill="#ffffff"
     d="m 111.55689,25.392484 h 1.46905 v 14.478605 h -1.46905 z"
     id="path42"
     style="stroke-width:0.0650023" />
  <path
     stroke="none"
     fill="#ffffff"
     d="m 99.752475,14.771115 v -0.84763 l 0.734525,-0.424465 15.45364,8.910511 0.0234,0.86128 -0.73453,0.424464 z"
     id="path43"
     style="stroke-width:0.0650023" />
  <path
     stroke="none"
     fill="#ffffff"
     d="m 84.275436,23.695275 -0.734526,-0.424464 -0.0084,-0.84308 15.485489,-8.928711 0.734526,0.424465 v 0.84763 z"
     id="path44"
     style="stroke-width:0.0650023" />
  <path
     stroke="none"
     fill="#ffffff"
     d="m 87.580151,26.028857 -0.733876,-1.272745 12.539587,-7.229552 0.733228,1.272745 z"
     id="path45"
     style="stroke-width:0.0650023" />
  <path
     stroke="none"
     fill="#ffffff"
     d="M 99.017949,3.3671174 H 100.487 V 13.49902 l -0.734525,0.424465 -0.734526,-0.424465 z"
     id="path46"
     style="stroke-width:0.0650023" />
  <path
     stroke="none"
     fill="#ffffff"
     d="m 125.56032,16.142012 0.80213,1.231143 -9.66389,6.295469 -0.73452,-0.397813 -0.0234,-0.86128 z"
     id="path47"
     style="stroke-width:0.0650023" />
  <path
     stroke="none"
     fill="#ffffff"
     d="m 125.82943,47.538106 -0.80213,1.231143 -9.08601,-5.916506 0.0228,-0.86128 0.73452,-0.398464 z"
     id="path48"
     style="stroke-width:0.0650023" />
  <path
     stroke="none"
     fill="#ffffff"
     d="M 100.487,62.259168 H 99.017949 V 51.775603 l 0.734526,-0.423815 0.734525,0.423815 z"
     id="path49"
     style="stroke-width:0.0650023" />
  <path
     stroke="none"
     fill="#ffffff"
     d="m 72.305919,17.934125 0.707225,-1.287045 10.519316,5.780651 0.0084,0.84308 -0.734525,0.434215 z"
     id="path50"
     style="stroke-width:0.0650023" />
  <path
     stroke="none"
     fill="#ffffff"
     d="m 74.001178,50.168097 -0.889231,-1.16874 9.694438,-7.371907 0.734525,0.364013 0.0559,0.88013 z"
     id="path51"
     style="stroke-width:0.0650023" />
  <path
     stroke="none"
     fill="#ffffff"
     d="m 216.41204,41.567648 -0.73453,0.423815 -0.73452,-0.364013 V 23.705026 l 0.73452,-0.434215 0.73453,0.424464 z"
     id="path52"
     style="stroke-width:0.0650023" />
  <path
     stroke="none"
     fill="#ffffff"
     d="m 231.88908,50.503509 v 0.848279 l -0.73453,0.423815 -15.42114,-8.90401 -0.0559,-0.88013 0.73453,-0.423815 z"
     id="path53"
     style="stroke-width:0.0650023" />
  <path
     stroke="none"
     fill="#ffffff"
     d="m 232.25634,46.474669 -0.73453,1.272094 -12.53893,-7.239302 0.73452,-1.272744 z"
     id="path54"
     style="stroke-width:0.0650023" />
  <path
     stroke="none"
     fill="#ffffff"
     d="m 247.36611,41.567648 0.73453,0.423815 -0.0234,0.86128 -15.45364,8.92286 -0.73452,-0.423815 v -0.848279 z"
     id="path55"
     style="stroke-width:0.0650023" />
  <path
     stroke="none"
     fill="#ffffff"
     d="m 247.36611,23.695275 0.73453,-0.424464 0.73453,0.397813 v 17.924375 l -0.73453,0.398464 -0.73453,-0.423815 z"
     id="path56"
     style="stroke-width:0.0650023" />
  <path
     stroke="none"
     fill="#ffffff"
     d="m 243.69349,25.392484 h 1.46905 v 14.478605 h -1.46905 z"
     id="path57"
     style="stroke-width:0.0650023" />
  <path
     stroke="none"
     fill="#ffffff"
     d="m 231.88908,14.771115 v -0.84763 l 0.73452,-0.424465 15.45364,8.910511 0.0234,0.86128 -0.73453,0.424464 z"
     id="path58"
     style="stroke-width:0.0650023" />
  <path
     stroke="none"
     fill="#ffffff"
     d="m 216.41204,23.695275 -0.73453,-0.424464 -0.008,-0.84308 15.48504,-8.928711 0.73453,0.424465 v 0.84763 z"
     id="path59"
     style="stroke-width:0.0650023" />
  <path
     stroke="none"
     fill="#ffffff"
     d="m 219.71675,26.028857 -0.73387,-1.272745 12.53958,-7.229552 0.73323,1.272745 z"
     id="path60"
     style="stroke-width:0.0650023" />
  <path
     stroke="none"
     fill="#ffffff"
     d="m 231.15455,3.3671174 h 1.46905 V 13.49902 l -0.73452,0.424465 -0.73453,-0.424465 z"
     id="path61"
     style="stroke-width:0.0650023" />
  <path
     stroke="none"
     fill="#ffffff"
     d="m 257.69692,16.142012 0.80213,1.231143 -9.66388,6.295469 -0.73453,-0.397813 -0.0234,-0.86128 z"
     id="path62"
     style="stroke-width:0.0650023" />
  <path
     stroke="none"
     fill="#ffffff"
     d="m 257.96603,47.538106 -0.80212,1.231143 -9.08667,-5.916506 0.0234,-0.86128 0.73453,-0.398464 z"
     id="path63"
     style="stroke-width:0.0650023" />
  <path
     stroke="none"
     fill="#ffffff"
     d="m 232.6236,62.259168 h -1.46905 V 51.775603 l 0.73453,-0.423815 0.73452,0.423815 z"
     id="path64"
     style="stroke-width:0.0650023" />
  <path
     stroke="none"
     fill="#ffffff"
     d="m 204.44252,17.934125 0.70722,-1.287045 10.51932,5.780651 0.008,0.84308 -0.73452,0.434215 z"
     id="path65"
     style="stroke-width:0.0650023" />
  <path
     stroke="none"
     fill="#ffffff"
     d="m 206.13778,50.168097 -0.88923,-1.16874 9.69444,-7.371907 0.73452,0.364013 0.0559,0.88013 z"
     id="path66"
     style="stroke-width:0.0650023" />
</svg>
